<mxfile host="65bd71144e">
    <diagram id="3Xap0wxRj6q-Ieou24p5" name="Page-1">
        <mxGraphModel dx="1147" dy="1289" grid="1" gridSize="10" guides="1" tooltips="1" connect="1" arrows="1" fold="1" page="1" pageScale="1" pageWidth="827" pageHeight="1169" math="0" shadow="0">
            <root>
                <mxCell id="0"/>
                <mxCell id="1" parent="0"/>
                <mxCell id="2" value="&lt;font style=&quot;font-size: 18px&quot;&gt;Bill&lt;/font&gt;" style="whiteSpace=wrap;html=1;align=center;" vertex="1" parent="1">
                    <mxGeometry x="330" y="360" width="100" height="40" as="geometry"/>
                </mxCell>
                <mxCell id="3" value="&lt;font style=&quot;font-size: 18px&quot;&gt;Booth&lt;/font&gt;" style="whiteSpace=wrap;html=1;align=center;" vertex="1" parent="1">
                    <mxGeometry x="210" y="630" width="100" height="40" as="geometry"/>
                </mxCell>
                <mxCell id="4" value="&lt;font style=&quot;font-size: 18px&quot;&gt;Restaurant&lt;/font&gt;" style="whiteSpace=wrap;html=1;align=center;" vertex="1" parent="1">
                    <mxGeometry x="620" y="100" width="100" height="40" as="geometry"/>
                </mxCell>
                <mxCell id="5" value="contains" style="shape=rhombus;perimeter=rhombusPerimeter;whiteSpace=wrap;html=1;align=center;fontSize=18;" vertex="1" parent="1">
                    <mxGeometry x="200" y="330" width="120" height="60" as="geometry"/>
                </mxCell>
                <mxCell id="6" value="process" style="shape=rhombus;perimeter=rhombusPerimeter;whiteSpace=wrap;html=1;align=center;fontSize=18;" vertex="1" parent="1">
                    <mxGeometry x="525" y="300" width="120" height="60" as="geometry"/>
                </mxCell>
                <mxCell id="7" value="generate" style="shape=rhombus;perimeter=rhombusPerimeter;whiteSpace=wrap;html=1;align=center;fontSize=18;" vertex="1" parent="1">
                    <mxGeometry x="150" y="460" width="120" height="60" as="geometry"/>
                </mxCell>
                <mxCell id="8" value="contains" style="shape=rhombus;perimeter=rhombusPerimeter;whiteSpace=wrap;html=1;align=center;fontSize=18;" vertex="1" parent="1">
                    <mxGeometry x="640" y="450" width="120" height="60" as="geometry"/>
                </mxCell>
                <mxCell id="9" value="&lt;font style=&quot;font-size: 14px&quot;&gt;BillAmount&lt;/font&gt;" style="ellipse;whiteSpace=wrap;html=1;align=center;fontSize=18;" vertex="1" parent="1">
                    <mxGeometry x="330" y="290" width="80" height="40" as="geometry"/>
                </mxCell>
                <mxCell id="10" value="&lt;font style=&quot;font-size: 14px&quot;&gt;&lt;u&gt;&lt;b&gt;Bill_ID&lt;/b&gt;&lt;/u&gt;&lt;/font&gt;" style="ellipse;whiteSpace=wrap;html=1;align=center;fontSize=18;" vertex="1" parent="1">
                    <mxGeometry x="410" y="270" width="80" height="40" as="geometry"/>
                </mxCell>
                <mxCell id="11" value="&lt;font style=&quot;font-size: 14px&quot;&gt;MaxCapacity&lt;/font&gt;" style="ellipse;whiteSpace=wrap;html=1;align=center;fontSize=18;" vertex="1" parent="1">
                    <mxGeometry x="800" y="80" width="90" height="40" as="geometry"/>
                </mxCell>
                <mxCell id="12" value="&lt;font style=&quot;font-size: 14px&quot;&gt;&lt;u&gt;&lt;b&gt;RestaurandID&lt;/b&gt;&lt;/u&gt;&lt;/font&gt;" style="ellipse;whiteSpace=wrap;html=1;align=center;fontSize=18;" vertex="1" parent="1">
                    <mxGeometry x="590" y="20" width="100" height="40" as="geometry"/>
                </mxCell>
                <mxCell id="13" value="&lt;font style=&quot;font-size: 14px&quot;&gt;GranuityAmount&lt;/font&gt;" style="ellipse;whiteSpace=wrap;html=1;align=center;fontSize=18;" vertex="1" parent="1">
                    <mxGeometry x="340" y="450" width="110" height="40" as="geometry"/>
                </mxCell>
                <mxCell id="14" value="&lt;font style=&quot;font-size: 14px&quot;&gt;Bill_Date_time&lt;/font&gt;" style="ellipse;whiteSpace=wrap;html=1;align=center;fontSize=18;" vertex="1" parent="1">
                    <mxGeometry x="470" y="430" width="100" height="40" as="geometry"/>
                </mxCell>
                <mxCell id="16" value="" style="endArrow=none;html=1;rounded=0;fontSize=14;entryX=1;entryY=0.25;entryDx=0;entryDy=0;exitX=0;exitY=0.5;exitDx=0;exitDy=0;" edge="1" parent="1" source="11" target="4">
                    <mxGeometry relative="1" as="geometry">
                        <mxPoint x="330" y="340" as="sourcePoint"/>
                        <mxPoint x="490" y="340" as="targetPoint"/>
                    </mxGeometry>
                </mxCell>
                <mxCell id="17" value="" style="endArrow=none;html=1;rounded=0;fontSize=14;entryX=0.5;entryY=1;entryDx=0;entryDy=0;exitX=0.25;exitY=0;exitDx=0;exitDy=0;" edge="1" parent="1" source="4" target="12">
                    <mxGeometry relative="1" as="geometry">
                        <mxPoint x="330" y="340" as="sourcePoint"/>
                        <mxPoint x="490" y="340" as="targetPoint"/>
                    </mxGeometry>
                </mxCell>
                <mxCell id="18" value="" style="endArrow=none;html=1;rounded=0;fontSize=14;entryX=1;entryY=0.5;entryDx=0;entryDy=0;exitX=0.25;exitY=1;exitDx=0;exitDy=0;" edge="1" parent="1" source="4" target="6">
                    <mxGeometry relative="1" as="geometry">
                        <mxPoint x="330" y="340" as="sourcePoint"/>
                        <mxPoint x="490" y="340" as="targetPoint"/>
                    </mxGeometry>
                </mxCell>
                <mxCell id="19" value="1" style="resizable=0;html=1;align=right;verticalAlign=bottom;fontSize=14;" connectable="0" vertex="1" parent="18">
                    <mxGeometry x="1" relative="1" as="geometry">
                        <mxPoint x="-10" y="-10" as="offset"/>
                    </mxGeometry>
                </mxCell>
                <mxCell id="20" value="" style="endArrow=none;html=1;rounded=0;fontSize=14;entryX=0;entryY=0.5;entryDx=0;entryDy=0;exitX=1;exitY=0.5;exitDx=0;exitDy=0;" edge="1" parent="1" source="2" target="6">
                    <mxGeometry relative="1" as="geometry">
                        <mxPoint x="330" y="340" as="sourcePoint"/>
                        <mxPoint x="490" y="340" as="targetPoint"/>
                    </mxGeometry>
                </mxCell>
                <mxCell id="21" value="N" style="resizable=0;html=1;align=right;verticalAlign=bottom;fontSize=14;" connectable="0" vertex="1" parent="20">
                    <mxGeometry x="1" relative="1" as="geometry"/>
                </mxCell>
                <mxCell id="22" value="" style="endArrow=none;html=1;rounded=0;fontSize=14;entryX=0.5;entryY=0;entryDx=0;entryDy=0;exitX=0.5;exitY=1;exitDx=0;exitDy=0;" edge="1" parent="1" source="72" target="5">
                    <mxGeometry relative="1" as="geometry">
                        <mxPoint x="240" y="180" as="sourcePoint"/>
                        <mxPoint x="650" y="320" as="targetPoint"/>
                    </mxGeometry>
                </mxCell>
                <mxCell id="23" value="1" style="resizable=0;html=1;align=right;verticalAlign=bottom;fontSize=14;" connectable="0" vertex="1" parent="22">
                    <mxGeometry x="1" relative="1" as="geometry">
                        <mxPoint x="20" as="offset"/>
                    </mxGeometry>
                </mxCell>
                <mxCell id="24" value="" style="endArrow=none;html=1;rounded=0;fontSize=14;entryX=0.5;entryY=1;entryDx=0;entryDy=0;exitX=0;exitY=0.5;exitDx=0;exitDy=0;" edge="1" parent="1" source="2" target="5">
                    <mxGeometry relative="1" as="geometry">
                        <mxPoint x="430" y="320" as="sourcePoint"/>
                        <mxPoint x="530" y="320" as="targetPoint"/>
                    </mxGeometry>
                </mxCell>
                <mxCell id="25" value="M" style="resizable=0;html=1;align=right;verticalAlign=bottom;fontSize=14;" connectable="0" vertex="1" parent="24">
                    <mxGeometry x="1" relative="1" as="geometry">
                        <mxPoint x="40" y="10" as="offset"/>
                    </mxGeometry>
                </mxCell>
                <mxCell id="26" value="" style="endArrow=none;html=1;rounded=0;fontSize=14;entryX=0.5;entryY=1;entryDx=0;entryDy=0;" edge="1" parent="1" source="2" target="9">
                    <mxGeometry relative="1" as="geometry">
                        <mxPoint x="330" y="500" as="sourcePoint"/>
                        <mxPoint x="490" y="500" as="targetPoint"/>
                    </mxGeometry>
                </mxCell>
                <mxCell id="27" value="" style="endArrow=none;html=1;rounded=0;fontSize=14;entryX=0.5;entryY=1;entryDx=0;entryDy=0;exitX=0.75;exitY=0;exitDx=0;exitDy=0;" edge="1" parent="1" source="2" target="10">
                    <mxGeometry relative="1" as="geometry">
                        <mxPoint x="330" y="500" as="sourcePoint"/>
                        <mxPoint x="490" y="500" as="targetPoint"/>
                    </mxGeometry>
                </mxCell>
                <mxCell id="28" value="" style="endArrow=none;html=1;rounded=0;fontSize=14;entryX=0.5;entryY=1;entryDx=0;entryDy=0;exitX=0.5;exitY=0;exitDx=0;exitDy=0;" edge="1" parent="1" source="13" target="2">
                    <mxGeometry relative="1" as="geometry">
                        <mxPoint x="330" y="500" as="sourcePoint"/>
                        <mxPoint x="490" y="500" as="targetPoint"/>
                    </mxGeometry>
                </mxCell>
                <mxCell id="29" value="" style="endArrow=none;html=1;rounded=0;fontSize=14;entryX=0.5;entryY=0;entryDx=0;entryDy=0;exitX=0.75;exitY=1;exitDx=0;exitDy=0;" edge="1" parent="1" source="2" target="14">
                    <mxGeometry relative="1" as="geometry">
                        <mxPoint x="330" y="500" as="sourcePoint"/>
                        <mxPoint x="490" y="500" as="targetPoint"/>
                    </mxGeometry>
                </mxCell>
                <mxCell id="30" value="" style="endArrow=none;html=1;rounded=0;fontSize=14;" edge="1" parent="1" target="8">
                    <mxGeometry relative="1" as="geometry">
                        <mxPoint x="660" y="140" as="sourcePoint"/>
                        <mxPoint x="650" y="320" as="targetPoint"/>
                        <Array as="points"/>
                    </mxGeometry>
                </mxCell>
                <mxCell id="31" value="1" style="resizable=0;html=1;align=right;verticalAlign=bottom;fontSize=14;" connectable="0" vertex="1" parent="30">
                    <mxGeometry x="1" relative="1" as="geometry">
                        <mxPoint x="-10" y="-10" as="offset"/>
                    </mxGeometry>
                </mxCell>
                <mxCell id="32" value="" style="endArrow=none;html=1;rounded=0;fontSize=14;entryX=0.5;entryY=1;entryDx=0;entryDy=0;exitX=1;exitY=0.5;exitDx=0;exitDy=0;" edge="1" parent="1" source="3" target="8">
                    <mxGeometry relative="1" as="geometry">
                        <mxPoint x="424" y="350" as="sourcePoint"/>
                        <mxPoint x="530" y="320" as="targetPoint"/>
                        <Array as="points">
                            <mxPoint x="500" y="610"/>
                        </Array>
                    </mxGeometry>
                </mxCell>
                <mxCell id="33" value="N" style="resizable=0;html=1;align=right;verticalAlign=bottom;fontSize=14;" connectable="0" vertex="1" parent="32">
                    <mxGeometry x="1" relative="1" as="geometry">
                        <mxPoint x="-30" y="10" as="offset"/>
                    </mxGeometry>
                </mxCell>
                <mxCell id="34" value="" style="endArrow=none;html=1;rounded=0;fontSize=14;exitX=0;exitY=0.75;exitDx=0;exitDy=0;entryX=0.5;entryY=0;entryDx=0;entryDy=0;" edge="1" parent="1" source="2" target="7">
                    <mxGeometry relative="1" as="geometry">
                        <mxPoint x="670" y="150" as="sourcePoint"/>
                        <mxPoint x="688.3333333333333" y="470.83333333333326" as="targetPoint"/>
                        <Array as="points"/>
                    </mxGeometry>
                </mxCell>
                <mxCell id="35" value="M" style="resizable=0;html=1;align=right;verticalAlign=bottom;fontSize=14;" connectable="0" vertex="1" parent="34">
                    <mxGeometry x="1" relative="1" as="geometry">
                        <mxPoint x="10" y="-10" as="offset"/>
                    </mxGeometry>
                </mxCell>
                <mxCell id="36" value="" style="endArrow=none;html=1;rounded=0;fontSize=14;entryX=0.5;entryY=1;entryDx=0;entryDy=0;exitX=0.5;exitY=0;exitDx=0;exitDy=0;" edge="1" parent="1" source="3" target="7">
                    <mxGeometry relative="1" as="geometry">
                        <mxPoint x="680" y="160" as="sourcePoint"/>
                        <mxPoint x="698.3333333333333" y="480.83333333333326" as="targetPoint"/>
                        <Array as="points"/>
                    </mxGeometry>
                </mxCell>
                <mxCell id="37" value="1" style="resizable=0;html=1;align=right;verticalAlign=bottom;fontSize=14;" connectable="0" vertex="1" parent="36">
                    <mxGeometry x="1" relative="1" as="geometry">
                        <mxPoint x="-10" y="20" as="offset"/>
                    </mxGeometry>
                </mxCell>
                <mxCell id="38" value="&lt;font style=&quot;font-size: 14px&quot;&gt;&lt;b&gt;&lt;u&gt;BoothCode&lt;/u&gt;&lt;/b&gt;&lt;/font&gt;" style="ellipse;whiteSpace=wrap;html=1;align=center;fontSize=18;" vertex="1" parent="1">
                    <mxGeometry x="175" y="720" width="115" height="40" as="geometry"/>
                </mxCell>
                <mxCell id="39" value="&lt;font style=&quot;font-size: 14px&quot;&gt;BoothCapacity&lt;/font&gt;" style="ellipse;whiteSpace=wrap;html=1;align=center;fontSize=18;" vertex="1" parent="1">
                    <mxGeometry x="300" y="710" width="100" height="40" as="geometry"/>
                </mxCell>
                <mxCell id="40" value="&lt;font style=&quot;font-size: 14px&quot;&gt;SmokingSectionIndicator&lt;/font&gt;" style="ellipse;whiteSpace=wrap;html=1;align=center;fontSize=18;" vertex="1" parent="1">
                    <mxGeometry x="340" y="660" width="180" height="40" as="geometry"/>
                </mxCell>
                <mxCell id="41" value="" style="endArrow=none;html=1;rounded=0;fontSize=14;entryX=0;entryY=0.5;entryDx=0;entryDy=0;exitX=1;exitY=0.75;exitDx=0;exitDy=0;" edge="1" parent="1" source="3" target="40">
                    <mxGeometry relative="1" as="geometry">
                        <mxPoint x="460" y="500" as="sourcePoint"/>
                        <mxPoint x="620" y="500" as="targetPoint"/>
                    </mxGeometry>
                </mxCell>
                <mxCell id="42" value="" style="endArrow=none;html=1;rounded=0;fontSize=14;entryX=0.5;entryY=0;entryDx=0;entryDy=0;exitX=0.5;exitY=1;exitDx=0;exitDy=0;" edge="1" parent="1" source="3" target="39">
                    <mxGeometry relative="1" as="geometry">
                        <mxPoint x="460" y="500" as="sourcePoint"/>
                        <mxPoint x="620" y="500" as="targetPoint"/>
                    </mxGeometry>
                </mxCell>
                <mxCell id="43" value="" style="endArrow=none;html=1;rounded=0;fontSize=14;entryX=0.5;entryY=0;entryDx=0;entryDy=0;exitX=0.25;exitY=1;exitDx=0;exitDy=0;" edge="1" parent="1" source="3" target="38">
                    <mxGeometry relative="1" as="geometry">
                        <mxPoint x="460" y="500" as="sourcePoint"/>
                        <mxPoint x="620" y="500" as="targetPoint"/>
                    </mxGeometry>
                </mxCell>
                <mxCell id="44" value="" style="endArrow=none;html=1;rounded=0;entryX=0;entryY=1;entryDx=0;entryDy=0;" edge="1" parent="1" target="69">
                    <mxGeometry relative="1" as="geometry">
                        <mxPoint x="700" y="100" as="sourcePoint"/>
                        <mxPoint x="760.1199999999999" y="58.42000000000007" as="targetPoint"/>
                    </mxGeometry>
                </mxCell>
                <mxCell id="45" value="1" style="resizable=0;html=1;align=right;verticalAlign=bottom;" connectable="0" vertex="1" parent="44">
                    <mxGeometry x="1" relative="1" as="geometry">
                        <mxPoint x="-30" y="12" as="offset"/>
                    </mxGeometry>
                </mxCell>
                <mxCell id="46" value="" style="shape=link;html=1;rounded=0;exitX=1;exitY=0;exitDx=0;exitDy=0;entryX=0;entryY=0.5;entryDx=0;entryDy=0;" edge="1" parent="1" source="69" target="70">
                    <mxGeometry relative="1" as="geometry">
                        <mxPoint x="816.5" y="23.679999999999836" as="sourcePoint"/>
                        <mxPoint x="871.6999999999998" y="0.7999999999999545" as="targetPoint"/>
                    </mxGeometry>
                </mxCell>
                <mxCell id="47" value="N" style="resizable=0;html=1;align=right;verticalAlign=bottom;" connectable="0" vertex="1" parent="46">
                    <mxGeometry x="1" relative="1" as="geometry">
                        <mxPoint x="-43" y="10" as="offset"/>
                    </mxGeometry>
                </mxCell>
                <mxCell id="48" value="" style="endArrow=none;html=1;rounded=0;exitX=0.25;exitY=0;exitDx=0;exitDy=0;entryX=0.5;entryY=1;entryDx=0;entryDy=0;" edge="1" parent="1" source="70" target="71">
                    <mxGeometry relative="1" as="geometry">
                        <mxPoint x="884" y="-39.87999999999988" as="sourcePoint"/>
                        <mxPoint x="810" y="-70" as="targetPoint"/>
                    </mxGeometry>
                </mxCell>
                <mxCell id="51" value="" style="endArrow=none;html=1;rounded=0;exitX=0.5;exitY=0;exitDx=0;exitDy=0;entryX=0.499;entryY=1.06;entryDx=0;entryDy=0;entryPerimeter=0;" edge="1" parent="1" source="70" target="52">
                    <mxGeometry relative="1" as="geometry">
                        <mxPoint x="919.8999999999996" y="-40" as="sourcePoint"/>
                        <mxPoint x="990.6999999999998" y="-39.51999999999998" as="targetPoint"/>
                    </mxGeometry>
                </mxCell>
                <mxCell id="52" value="Owner_Fname" style="ellipse;whiteSpace=wrap;html=1;align=center;" vertex="1" parent="1">
                    <mxGeometry x="870" y="-110" width="100" height="40" as="geometry"/>
                </mxCell>
                <mxCell id="53" value="Owner_Lname" style="ellipse;whiteSpace=wrap;html=1;align=center;" vertex="1" parent="1">
                    <mxGeometry x="980" y="-70" width="100" height="40" as="geometry"/>
                </mxCell>
                <mxCell id="54" value="" style="endArrow=none;html=1;rounded=0;exitX=1;exitY=0.25;exitDx=0;exitDy=0;entryX=0;entryY=1;entryDx=0;entryDy=0;" edge="1" parent="1" source="70" target="53">
                    <mxGeometry relative="1" as="geometry">
                        <mxPoint x="940" y="-30" as="sourcePoint"/>
                        <mxPoint x="1090" y="20" as="targetPoint"/>
                    </mxGeometry>
                </mxCell>
                <mxCell id="69" value="Has" style="rhombus;whiteSpace=wrap;html=1;" vertex="1" parent="1">
                    <mxGeometry x="747" width="80" height="80" as="geometry"/>
                </mxCell>
                <mxCell id="70" value="Owner" style="rounded=0;whiteSpace=wrap;html=1;" vertex="1" parent="1">
                    <mxGeometry x="870" y="-30" width="100" height="40" as="geometry"/>
                </mxCell>
                <mxCell id="71" value="&lt;u&gt;SSN&lt;/u&gt;" style="ellipse;whiteSpace=wrap;html=1;align=center;" vertex="1" parent="1">
                    <mxGeometry x="720" y="-120" width="100" height="40" as="geometry"/>
                </mxCell>
                <mxCell id="72" value="&lt;font style=&quot;font-size: 18px&quot;&gt;Dessert&lt;/font&gt;" style="whiteSpace=wrap;html=1;align=center;" vertex="1" parent="1">
                    <mxGeometry x="200" y="150" width="100" height="40" as="geometry"/>
                </mxCell>
                <mxCell id="73" value="&lt;font style=&quot;font-size: 14px&quot;&gt;DessertPrice&lt;/font&gt;" style="ellipse;whiteSpace=wrap;html=1;align=center;fontSize=18;" vertex="1" parent="1">
                    <mxGeometry x="20" y="60" width="100" height="40" as="geometry"/>
                </mxCell>
                <mxCell id="74" value="&lt;font style=&quot;font-size: 14px&quot;&gt;DessertDescription&lt;/font&gt;" style="ellipse;whiteSpace=wrap;html=1;align=center;fontSize=18;" vertex="1" parent="1">
                    <mxGeometry x="80" y="20" width="140" height="40" as="geometry"/>
                </mxCell>
                <mxCell id="76" value="&lt;font style=&quot;font-size: 14px&quot;&gt;DessertName&lt;/font&gt;" style="ellipse;whiteSpace=wrap;html=1;align=center;fontSize=18;" vertex="1" parent="1">
                    <mxGeometry x="180" y="60" width="90" height="40" as="geometry"/>
                </mxCell>
                <mxCell id="77" value="" style="endArrow=none;html=1;rounded=0;fontSize=18;entryX=1;entryY=0.5;entryDx=0;entryDy=0;exitX=0;exitY=0.25;exitDx=0;exitDy=0;" edge="1" parent="1" source="72" target="73">
                    <mxGeometry relative="1" as="geometry">
                        <mxPoint x="340" y="350" as="sourcePoint"/>
                        <mxPoint x="500" y="350" as="targetPoint"/>
                    </mxGeometry>
                </mxCell>
                <mxCell id="78" value="" style="endArrow=none;html=1;rounded=0;fontSize=18;entryX=0.5;entryY=1;entryDx=0;entryDy=0;exitX=0.25;exitY=0;exitDx=0;exitDy=0;" edge="1" parent="1" source="72" target="74">
                    <mxGeometry relative="1" as="geometry">
                        <mxPoint x="340" y="350" as="sourcePoint"/>
                        <mxPoint x="500" y="350" as="targetPoint"/>
                    </mxGeometry>
                </mxCell>
                <mxCell id="79" value="" style="endArrow=none;html=1;rounded=0;fontSize=18;entryX=0.5;entryY=1;entryDx=0;entryDy=0;exitX=0.5;exitY=0;exitDx=0;exitDy=0;startArrow=none;" edge="1" parent="1" source="72" target="76">
                    <mxGeometry relative="1" as="geometry">
                        <mxPoint x="340" y="350" as="sourcePoint"/>
                        <mxPoint x="500" y="350" as="targetPoint"/>
                    </mxGeometry>
                </mxCell>
                <mxCell id="80" value="" style="endArrow=none;html=1;rounded=0;fontSize=18;entryX=0.5;entryY=1;entryDx=0;entryDy=0;exitX=0.75;exitY=0;exitDx=0;exitDy=0;" edge="1" parent="1" source="72" target="75">
                    <mxGeometry relative="1" as="geometry">
                        <mxPoint x="340" y="350" as="sourcePoint"/>
                        <mxPoint x="500" y="350" as="targetPoint"/>
                    </mxGeometry>
                </mxCell>
                <mxCell id="82" value="" style="endArrow=none;html=1;rounded=0;fontSize=18;entryX=1;entryY=0.5;entryDx=0;entryDy=0;exitX=0;exitY=0.5;exitDx=0;exitDy=0;" edge="1" parent="1" source="72" target="87">
                    <mxGeometry relative="1" as="geometry">
                        <mxPoint x="200" y="360" as="sourcePoint"/>
                        <mxPoint x="160" y="170" as="targetPoint"/>
                    </mxGeometry>
                </mxCell>
                <mxCell id="83" value="" style="endArrow=none;html=1;rounded=0;fontSize=18;exitX=0;exitY=1;exitDx=0;exitDy=0;entryX=1;entryY=0.5;entryDx=0;entryDy=0;" edge="1" parent="1" source="72" target="140">
                    <mxGeometry relative="1" as="geometry">
                        <mxPoint x="160" y="370" as="sourcePoint"/>
                        <mxPoint x="159.95000000000027" y="210" as="targetPoint"/>
                    </mxGeometry>
                </mxCell>
                <mxCell id="84" value="" style="endArrow=none;html=1;rounded=0;fontSize=18;entryX=1;entryY=0.5;entryDx=0;entryDy=0;" edge="1" parent="1" target="92">
                    <mxGeometry relative="1" as="geometry">
                        <mxPoint x="200" y="160" as="sourcePoint"/>
                        <mxPoint x="120" y="130" as="targetPoint"/>
                    </mxGeometry>
                </mxCell>
                <mxCell id="85" value="&lt;font style=&quot;font-size: 14px&quot;&gt;DrinkName&lt;br&gt;&lt;/font&gt;" style="ellipse;whiteSpace=wrap;html=1;align=center;fontSize=18;" vertex="1" parent="1">
                    <mxGeometry x="-350" y="-20" width="100" height="50" as="geometry"/>
                </mxCell>
                <mxCell id="86" value="" style="endArrow=none;html=1;rounded=0;fontSize=18;entryX=0.5;entryY=1;entryDx=0;entryDy=0;exitX=0.25;exitY=0;exitDx=0;exitDy=0;startArrow=none;" edge="1" parent="1" source="93" target="85">
                    <mxGeometry relative="1" as="geometry">
                        <mxPoint x="-610" y="-30" as="sourcePoint"/>
                        <mxPoint x="30" y="60" as="targetPoint"/>
                    </mxGeometry>
                </mxCell>
                <mxCell id="87" value="has" style="shape=rhombus;double=1;perimeter=rhombusPerimeter;whiteSpace=wrap;html=1;align=center;" vertex="1" parent="1">
                    <mxGeometry x="-70" y="140" width="120" height="60" as="geometry"/>
                </mxCell>
                <mxCell id="88" value="Topping" style="shape=ext;margin=3;double=1;whiteSpace=wrap;html=1;align=center;" vertex="1" parent="1">
                    <mxGeometry x="-240" y="200" width="110" height="40" as="geometry"/>
                </mxCell>
                <mxCell id="89" value="" style="shape=link;html=1;rounded=0;fontFamily=Helvetica;fontSize=18;fontColor=rgb(240, 240, 240);align=center;strokeColor=rgb(240, 240, 240);" edge="1" parent="1" source="87" target="88">
                    <mxGeometry relative="1" as="geometry">
                        <mxPoint x="-70" y="170" as="sourcePoint"/>
                        <mxPoint x="-420" y="285" as="targetPoint"/>
                    </mxGeometry>
                </mxCell>
                <mxCell id="90" value="" style="endArrow=none;html=1;rounded=0;entryX=0.25;entryY=0;entryDx=0;entryDy=0;" edge="1" parent="1" target="88">
                    <mxGeometry relative="1" as="geometry">
                        <mxPoint x="-281.2032242917321" y="177.6162447321999" as="sourcePoint"/>
                        <mxPoint x="-460" y="130" as="targetPoint"/>
                    </mxGeometry>
                </mxCell>
                <mxCell id="91" value="N" style="resizable=0;html=1;align=right;verticalAlign=bottom;" connectable="0" vertex="1" parent="1">
                    <mxGeometry x="-90" y="185" as="geometry"/>
                </mxCell>
                <mxCell id="92" value="Has" style="shape=rhombus;double=1;perimeter=rhombusPerimeter;whiteSpace=wrap;html=1;align=center;" vertex="1" parent="1">
                    <mxGeometry x="-140" y="40" width="120" height="60" as="geometry"/>
                </mxCell>
                <mxCell id="93" value="Drink" style="shape=ext;margin=3;double=1;whiteSpace=wrap;html=1;align=center;" vertex="1" parent="1">
                    <mxGeometry x="-300" y="55" width="120" height="40" as="geometry"/>
                </mxCell>
                <mxCell id="94" value="" style="shape=link;html=1;rounded=0;fontFamily=Helvetica;fontSize=18;fontColor=rgb(240, 240, 240);align=center;strokeColor=rgb(240, 240, 240);" edge="1" parent="1" source="92" target="93">
                    <mxGeometry relative="1" as="geometry">
                        <mxPoint x="-140" y="70" as="sourcePoint"/>
                        <mxPoint x="-490" y="185" as="targetPoint"/>
                    </mxGeometry>
                </mxCell>
                <mxCell id="95" value="" style="endArrow=none;html=1;rounded=0;entryX=0;entryY=0.5;entryDx=0;entryDy=0;exitX=1.033;exitY=0.68;exitDx=0;exitDy=0;exitPerimeter=0;" edge="1" parent="1" source="100" target="93">
                    <mxGeometry relative="1" as="geometry">
                        <mxPoint x="-377.5663548304899" y="44.11074365157492" as="sourcePoint"/>
                        <mxPoint x="-520" y="-65" as="targetPoint"/>
                    </mxGeometry>
                </mxCell>
                <mxCell id="96" value="N" style="resizable=0;html=1;align=right;verticalAlign=bottom;" connectable="0" vertex="1" parent="1">
                    <mxGeometry x="-160" y="70" as="geometry"/>
                </mxCell>
                <mxCell id="97" value="1" style="resizable=0;html=1;align=right;verticalAlign=bottom;" connectable="0" vertex="1" parent="1">
                    <mxGeometry x="-10.493357726008071" y="69.79761390873296" as="geometry"/>
                </mxCell>
                <mxCell id="98" value="&lt;font style=&quot;font-size: 14px&quot;&gt;ToppingName&lt;br&gt;&lt;/font&gt;" style="ellipse;whiteSpace=wrap;html=1;align=center;fontSize=18;" vertex="1" parent="1">
                    <mxGeometry x="-270" y="115" width="100" height="50" as="geometry"/>
                </mxCell>
                <mxCell id="99" value="" style="endArrow=none;html=1;rounded=0;shadow=0;exitX=0.79;exitY=0.936;exitDx=0;exitDy=0;exitPerimeter=0;entryX=0.75;entryY=0;entryDx=0;entryDy=0;" edge="1" parent="1" source="98" target="88">
                    <mxGeometry relative="1" as="geometry">
                        <mxPoint x="-570" y="220" as="sourcePoint"/>
                        <mxPoint x="-410" y="220" as="targetPoint"/>
                    </mxGeometry>
                </mxCell>
                <mxCell id="100" value="&lt;span style=&quot;border-bottom: 1px dotted&quot;&gt;DrinkID&lt;/span&gt;" style="ellipse;whiteSpace=wrap;html=1;align=center;" vertex="1" parent="1">
                    <mxGeometry x="-490" y="20" width="100" height="40" as="geometry"/>
                </mxCell>
                <mxCell id="101" value="&lt;span style=&quot;border-bottom: 1px dotted&quot;&gt;ToppingID&lt;/span&gt;" style="ellipse;whiteSpace=wrap;html=1;align=center;" vertex="1" parent="1">
                    <mxGeometry x="-370" y="145" width="100" height="40" as="geometry"/>
                </mxCell>
                <mxCell id="102" value="1" style="resizable=0;html=1;align=right;verticalAlign=bottom;" connectable="0" vertex="1" parent="1">
                    <mxGeometry x="-0.49335772600807104" y="79.79761390873296" as="geometry">
                        <mxPoint x="52" y="86" as="offset"/>
                    </mxGeometry>
                </mxCell>
                <mxCell id="114" value="1" style="resizable=0;html=1;align=right;verticalAlign=bottom;fontSize=14;" connectable="0" vertex="1" parent="1">
                    <mxGeometry x="225.34364668385797" y="565.7560227044873" as="geometry"/>
                </mxCell>
                <mxCell id="115" value="&lt;font style=&quot;font-size: 14px&quot;&gt;BoothTypeCode&lt;/font&gt;" style="ellipse;whiteSpace=wrap;html=1;align=center;fontStyle=4;fontFamily=Helvetica;fontSize=18;fontColor=rgb(240, 240, 240);strokeColor=rgb(240, 240, 240);fillColor=rgb(42, 42, 42);" vertex="1" parent="1">
                    <mxGeometry x="-230" y="500" width="110" height="40" as="geometry"/>
                </mxCell>
                <mxCell id="116" value="&lt;font style=&quot;font-size: 14px&quot;&gt;BoothTypeText&lt;/font&gt;" style="ellipse;whiteSpace=wrap;html=1;align=center;fontSize=18;" vertex="1" parent="1">
                    <mxGeometry x="-170" y="450" width="100" height="40" as="geometry"/>
                </mxCell>
                <mxCell id="117" value="" style="endArrow=none;html=1;rounded=0;fontSize=14;" edge="1" parent="1" source="115" target="120">
                    <mxGeometry relative="1" as="geometry">
                        <mxPoint x="420" y="480" as="sourcePoint"/>
                        <mxPoint x="580" y="480" as="targetPoint"/>
                    </mxGeometry>
                </mxCell>
                <mxCell id="118" value="" style="endArrow=none;html=1;rounded=0;fontSize=14;entryX=0.25;entryY=0;entryDx=0;entryDy=0;exitX=1;exitY=0.5;exitDx=0;exitDy=0;" edge="1" parent="1" source="116" target="120">
                    <mxGeometry relative="1" as="geometry">
                        <mxPoint x="420" y="480" as="sourcePoint"/>
                        <mxPoint x="580" y="480" as="targetPoint"/>
                    </mxGeometry>
                </mxCell>
                <mxCell id="119" value="has" style="shape=rhombus;perimeter=rhombusPerimeter;whiteSpace=wrap;html=1;align=center;fontFamily=Helvetica;fontSize=12;fontColor=rgb(240, 240, 240);strokeColor=rgb(240, 240, 240);fillColor=rgb(42, 42, 42);" vertex="1" parent="1">
                    <mxGeometry x="80" y="580" width="120" height="60" as="geometry"/>
                </mxCell>
                <mxCell id="120" value="&lt;span style=&quot;font-size: 14px&quot;&gt;BoothType&lt;/span&gt;" style="whiteSpace=wrap;html=1;align=center;fontFamily=Helvetica;fontSize=12;fontColor=rgb(240, 240, 240);strokeColor=rgb(240, 240, 240);fillColor=rgb(42, 42, 42);" vertex="1" parent="1">
                    <mxGeometry x="-60" y="520" width="150" height="50" as="geometry"/>
                </mxCell>
                <mxCell id="121" value="" style="endArrow=none;html=1;rounded=0;entryX=0;entryY=0.25;entryDx=0;entryDy=0;" edge="1" parent="1" source="119">
                    <mxGeometry relative="1" as="geometry">
                        <mxPoint x="150" y="620" as="sourcePoint"/>
                        <mxPoint x="220" y="650" as="targetPoint"/>
                    </mxGeometry>
                </mxCell>
                <mxCell id="122" value="N" style="resizable=0;html=1;align=right;verticalAlign=bottom;" connectable="0" vertex="1" parent="121">
                    <mxGeometry x="1" relative="1" as="geometry"/>
                </mxCell>
                <mxCell id="123" value="" style="endArrow=none;html=1;rounded=0;fontFamily=Helvetica;fontSize=11;fontColor=rgb(240, 240, 240);align=center;strokeColor=rgb(240, 240, 240);" edge="1" parent="1" source="120" target="119">
                    <mxGeometry relative="1" as="geometry">
                        <mxPoint x="-10" y="580" as="sourcePoint"/>
                        <mxPoint x="150" y="580" as="targetPoint"/>
                    </mxGeometry>
                </mxCell>
                <mxCell id="124" value="1" style="resizable=0;html=1;align=right;verticalAlign=bottom;" connectable="0" vertex="1" parent="123">
                    <mxGeometry x="1" relative="1" as="geometry"/>
                </mxCell>
                <mxCell id="125" value="&lt;font style=&quot;font-size: 14px&quot;&gt;RegionName&lt;/font&gt;" style="ellipse;whiteSpace=wrap;html=1;align=center;fontSize=18;" vertex="1" parent="1">
                    <mxGeometry x="855" y="290" width="90" height="40" as="geometry"/>
                </mxCell>
                <mxCell id="126" value="&lt;font style=&quot;font-size: 14px&quot;&gt;RegionCode&lt;/font&gt;" style="ellipse;whiteSpace=wrap;html=1;align=center;fontStyle=4;fontFamily=Helvetica;fontSize=18;fontColor=rgb(240, 240, 240);strokeColor=rgb(240, 240, 240);fillColor=rgb(42, 42, 42);" vertex="1" parent="1">
                    <mxGeometry x="760" y="320" width="90" height="40" as="geometry"/>
                </mxCell>
                <mxCell id="127" value="Region" style="whiteSpace=wrap;html=1;align=center;fontFamily=Helvetica;fontSize=12;fontColor=rgb(240, 240, 240);strokeColor=rgb(240, 240, 240);fillColor=rgb(42, 42, 42);" vertex="1" parent="1">
                    <mxGeometry x="760" y="250" width="100" height="40" as="geometry"/>
                </mxCell>
                <mxCell id="128" value="Is_In" style="shape=rhombus;perimeter=rhombusPerimeter;whiteSpace=wrap;html=1;align=center;fontFamily=Helvetica;fontSize=12;fontColor=rgb(240, 240, 240);strokeColor=rgb(240, 240, 240);fillColor=rgb(42, 42, 42);" vertex="1" parent="1">
                    <mxGeometry x="700" y="165" width="120" height="60" as="geometry"/>
                </mxCell>
                <mxCell id="129" value="" style="endArrow=none;html=1;rounded=0;exitX=0.858;exitY=1.008;exitDx=0;exitDy=0;exitPerimeter=0;entryX=0;entryY=0;entryDx=0;entryDy=0;" edge="1" parent="1" target="128">
                    <mxGeometry relative="1" as="geometry">
                        <mxPoint x="705.7999999999997" y="140.3199999999997" as="sourcePoint"/>
                        <mxPoint x="880" y="170" as="targetPoint"/>
                    </mxGeometry>
                </mxCell>
                <mxCell id="130" value="1" style="resizable=0;html=1;align=right;verticalAlign=bottom;" connectable="0" vertex="1" parent="129">
                    <mxGeometry x="1" relative="1" as="geometry">
                        <mxPoint x="60" y="60" as="offset"/>
                    </mxGeometry>
                </mxCell>
                <mxCell id="131" value="" style="endArrow=none;html=1;rounded=0;fontFamily=Helvetica;fontSize=11;fontColor=rgb(240, 240, 240);align=center;strokeColor=rgb(240, 240, 240);" edge="1" parent="1" source="128" target="127">
                    <mxGeometry relative="1" as="geometry">
                        <mxPoint x="810" y="220" as="sourcePoint"/>
                        <mxPoint x="970" y="220" as="targetPoint"/>
                        <Array as="points">
                            <mxPoint x="780" y="240"/>
                        </Array>
                    </mxGeometry>
                </mxCell>
                <mxCell id="132" value="N" style="resizable=0;html=1;align=right;verticalAlign=bottom;" connectable="0" vertex="1" parent="131">
                    <mxGeometry x="1" relative="1" as="geometry">
                        <mxPoint x="-35" y="-85" as="offset"/>
                    </mxGeometry>
                </mxCell>
                <mxCell id="133" value="" style="endArrow=none;html=1;rounded=0;exitX=0.309;exitY=1.01;exitDx=0;exitDy=0;exitPerimeter=0;" edge="1" parent="1" source="127" target="126">
                    <mxGeometry relative="1" as="geometry">
                        <mxPoint x="750" y="320" as="sourcePoint"/>
                        <mxPoint x="910" y="320" as="targetPoint"/>
                    </mxGeometry>
                </mxCell>
                <mxCell id="134" value="" style="endArrow=none;html=1;rounded=0;exitX=1;exitY=1;exitDx=0;exitDy=0;entryX=0.107;entryY=0.22;entryDx=0;entryDy=0;entryPerimeter=0;" edge="1" parent="1" source="127" target="125">
                    <mxGeometry relative="1" as="geometry">
                        <mxPoint x="850" y="280" as="sourcePoint"/>
                        <mxPoint x="1010" y="280" as="targetPoint"/>
                    </mxGeometry>
                </mxCell>
                <mxCell id="135" value="&lt;font style=&quot;font-size: 14px&quot;&gt;DessertCategoryName&lt;/font&gt;" style="ellipse;whiteSpace=wrap;html=1;align=center;fontSize=18;" vertex="1" parent="1">
                    <mxGeometry x="-250" y="270" width="150" height="40" as="geometry"/>
                </mxCell>
                <mxCell id="136" value="" style="endArrow=none;html=1;rounded=0;fontSize=18;exitX=0;exitY=0.5;exitDx=0;exitDy=0;entryX=0.933;entryY=0.25;entryDx=0;entryDy=0;entryPerimeter=0;" edge="1" parent="1" source="137" target="135">
                    <mxGeometry relative="1" as="geometry">
                        <mxPoint x="80" y="400" as="sourcePoint"/>
                        <mxPoint x="90" y="240" as="targetPoint"/>
                    </mxGeometry>
                </mxCell>
                <mxCell id="137" value="DessertCategory" style="whiteSpace=wrap;html=1;align=center;" vertex="1" parent="1">
                    <mxGeometry x="-80" y="250" width="100" height="40" as="geometry"/>
                </mxCell>
                <mxCell id="138" value="DessertCategoryID" style="ellipse;whiteSpace=wrap;html=1;align=center;fontStyle=4;" vertex="1" parent="1">
                    <mxGeometry x="-180" y="340" width="120" height="40" as="geometry"/>
                </mxCell>
                <mxCell id="139" value="" style="endArrow=none;html=1;rounded=0;exitX=0.833;exitY=0;exitDx=0;exitDy=0;exitPerimeter=0;entryX=0.25;entryY=1;entryDx=0;entryDy=0;" edge="1" parent="1" source="138" target="137">
                    <mxGeometry relative="1" as="geometry">
                        <mxPoint x="30" y="250" as="sourcePoint"/>
                        <mxPoint x="190" y="250" as="targetPoint"/>
                    </mxGeometry>
                </mxCell>
                <mxCell id="140" value="belongsto" style="shape=rhombus;perimeter=rhombusPerimeter;whiteSpace=wrap;html=1;align=center;" vertex="1" parent="1">
                    <mxGeometry x="50" y="200" width="120" height="60" as="geometry"/>
                </mxCell>
                <mxCell id="141" value="" style="shape=link;html=1;rounded=0;exitX=1;exitY=0.25;exitDx=0;exitDy=0;" edge="1" parent="1" source="137" target="140">
                    <mxGeometry relative="1" as="geometry">
                        <mxPoint x="50" y="280" as="sourcePoint"/>
                        <mxPoint x="100" y="310" as="targetPoint"/>
                    </mxGeometry>
                </mxCell>
                <mxCell id="142" value="1" style="resizable=0;html=1;align=right;verticalAlign=bottom;" connectable="0" vertex="1" parent="141">
                    <mxGeometry x="1" relative="1" as="geometry">
                        <mxPoint x="-30" y="15" as="offset"/>
                    </mxGeometry>
                </mxCell>
                <mxCell id="143" value="N" style="text;html=1;align=center;verticalAlign=middle;resizable=0;points=[];autosize=1;strokeColor=none;fillColor=none;" vertex="1" parent="1">
                    <mxGeometry x="160" y="190" width="20" height="20" as="geometry"/>
                </mxCell>
                <mxCell id="75" value="&lt;u&gt;&lt;font style=&quot;font-size: 14px&quot;&gt;&lt;b&gt;DessertCode&lt;/b&gt;&lt;/font&gt;&lt;/u&gt;" style="ellipse;whiteSpace=wrap;html=1;align=center;fontSize=18;" vertex="1" parent="1">
                    <mxGeometry x="270" y="80" width="90" height="40" as="geometry"/>
                </mxCell>
                <mxCell id="160" value="" style="endArrow=none;html=1;rounded=0;fontSize=18;entryX=0.5;entryY=1;entryDx=0;entryDy=0;exitX=0.25;exitY=0;exitDx=0;exitDy=0;" edge="1" parent="1" target="175" source="170">
                    <mxGeometry relative="1" as="geometry">
                        <mxPoint x="475" y="130" as="sourcePoint"/>
                        <mxPoint x="395.1999999999998" y="69.88000000000011" as="targetPoint"/>
                    </mxGeometry>
                </mxCell>
                <mxCell id="161" value="&lt;font style=&quot;font-size: 14px&quot;&gt;DessertOfferedDateEnd&lt;/font&gt;" style="ellipse;whiteSpace=wrap;html=1;align=center;fontSize=18;" vertex="1" parent="1">
                    <mxGeometry x="440" width="170" height="40" as="geometry"/>
                </mxCell>
                <mxCell id="162" value="" style="endArrow=none;html=1;rounded=0;fontSize=18;exitX=0.75;exitY=0;exitDx=0;exitDy=0;" edge="1" parent="1" target="161" source="170">
                    <mxGeometry relative="1" as="geometry">
                        <mxPoint x="515" y="130" as="sourcePoint"/>
                        <mxPoint x="385" y="60" as="targetPoint"/>
                    </mxGeometry>
                </mxCell>
                <mxCell id="164" value="" style="endArrow=none;html=1;rounded=0;exitX=1;exitY=0.5;exitDx=0;exitDy=0;" edge="1" parent="1" target="168" source="72">
                    <mxGeometry relative="1" as="geometry">
                        <mxPoint x="310" y="170" as="sourcePoint"/>
                        <mxPoint x="380" y="170" as="targetPoint"/>
                    </mxGeometry>
                </mxCell>
                <mxCell id="165" value="M" style="resizable=0;html=1;align=right;verticalAlign=bottom;" connectable="0" vertex="1" parent="164">
                    <mxGeometry x="1" relative="1" as="geometry">
                        <mxPoint x="-4" y="1" as="offset"/>
                    </mxGeometry>
                </mxCell>
                <mxCell id="166" value="" style="endArrow=none;html=1;entryX=1;entryY=0.5;entryDx=0;entryDy=0;" edge="1" parent="1" target="169">
                    <mxGeometry width="50" height="50" relative="1" as="geometry">
                        <mxPoint x="620" y="140" as="sourcePoint"/>
                        <mxPoint x="535" y="150.00000000000023" as="targetPoint"/>
                    </mxGeometry>
                </mxCell>
                <mxCell id="167" value="N" style="text;html=1;align=center;verticalAlign=middle;resizable=0;points=[];autosize=1;strokeColor=none;fillColor=none;" vertex="1" parent="1">
                    <mxGeometry x="600" y="125" width="20" height="20" as="geometry"/>
                </mxCell>
                <mxCell id="168" value="Offer" style="shape=rhombus;double=1;perimeter=rhombusPerimeter;whiteSpace=wrap;html=1;align=center;" vertex="1" parent="1">
                    <mxGeometry x="320" y="145" width="96" height="45" as="geometry"/>
                </mxCell>
                <mxCell id="169" value="Offer" style="shape=rhombus;double=1;perimeter=rhombusPerimeter;whiteSpace=wrap;html=1;align=center;" vertex="1" parent="1">
                    <mxGeometry x="550" y="140" width="70" height="35" as="geometry"/>
                </mxCell>
                <mxCell id="170" value="Date" style="shape=ext;margin=3;double=1;whiteSpace=wrap;html=1;align=center;" vertex="1" parent="1">
                    <mxGeometry x="435" y="140" width="100" height="40" as="geometry"/>
                </mxCell>
                <mxCell id="171" value="" style="endArrow=none;html=1;exitX=1;exitY=0.5;exitDx=0;exitDy=0;entryX=0;entryY=1;entryDx=0;entryDy=0;" edge="1" parent="1" source="168" target="170">
                    <mxGeometry width="50" height="50" relative="1" as="geometry">
                        <mxPoint x="580" y="200" as="sourcePoint"/>
                        <mxPoint x="450" y="160" as="targetPoint"/>
                    </mxGeometry>
                </mxCell>
                <mxCell id="172" value="" style="endArrow=none;html=1;exitX=1;exitY=0.5;exitDx=0;exitDy=0;entryX=0;entryY=0.5;entryDx=0;entryDy=0;" edge="1" parent="1" source="170" target="169">
                    <mxGeometry width="50" height="50" relative="1" as="geometry">
                        <mxPoint x="580" y="200" as="sourcePoint"/>
                        <mxPoint x="630" y="150" as="targetPoint"/>
                    </mxGeometry>
                </mxCell>
                <mxCell id="173" value="1" style="text;html=1;align=center;verticalAlign=middle;resizable=0;points=[];autosize=1;strokeColor=none;fillColor=none;" vertex="1" parent="1">
                    <mxGeometry x="420" y="150" width="20" height="20" as="geometry"/>
                </mxCell>
                <mxCell id="174" value="1" style="text;html=1;align=center;verticalAlign=middle;resizable=0;points=[];autosize=1;strokeColor=none;fillColor=none;" vertex="1" parent="1">
                    <mxGeometry x="540" y="140" width="20" height="20" as="geometry"/>
                </mxCell>
                <mxCell id="175" value="&lt;span&gt;DessertOfferedDateStart&lt;/span&gt;" style="ellipse;whiteSpace=wrap;html=1;fontSize=14;" vertex="1" parent="1">
                    <mxGeometry x="272" y="-10" width="156" height="60" as="geometry"/>
                </mxCell>
            </root>
        </mxGraphModel>
    </diagram>
</mxfile>